<svg width="28" height="28" viewBox="0 0 28 28" fill="none" xmlns="http://www.w3.org/2000/svg">
<path d="M20.4141 5.25C18.1391 5.25 15.6891 5.71667 13.9974 7C12.3057 5.71667 9.85573 5.25 7.58073 5.25C5.30573 5.25 2.85573 5.71667 1.16406 7V24.0917C1.16406 24.85 2.01573 24.6167 2.03906 24.6167C3.61406 23.8583 5.88906 23.3333 7.58073 23.3333C9.85573 23.3333 12.3057 23.8 13.9974 25.0833C15.5724 24.0917 18.4307 23.3333 20.4141 23.3333C22.3391 23.3333 24.3224 23.6833 25.9557 24.5583C26.4341 24.8033 26.8307 24.3367 26.8307 24.0333V7C25.0924 5.69333 22.5957 5.25 20.4141 5.25ZM24.4974 21.5833C23.2141 21.175 21.8141 21 20.4141 21C18.4307 21 15.5724 21.7583 13.9974 22.75V9.33333C15.5724 8.34167 18.4307 7.58333 20.4141 7.58333C21.8141 7.58333 23.2141 7.75833 24.4974 8.16667V21.5833Z" fill="#F57C40"/>
</svg>
