<svg width="20" height="20" viewBox="0 0 20 20" fill="none" xmlns="http://www.w3.org/2000/svg">
<g clip-path="url(#clip0_1155_10477)">
<path d="M6.55558 14.4125L12.8913 8.07681L12.8913 13.6205C12.8913 14.0731 13.2307 14.4125 13.6832 14.4125C14.1358 14.4125 14.4752 14.0731 14.4752 13.6205V6.15348C14.4752 5.70094 14.1358 5.36152 13.6832 5.36152L6.21617 5.36152C5.76362 5.36152 5.42421 5.70093 5.42421 6.15348C5.42421 6.60603 5.76362 6.94544 6.21617 6.94544L11.7599 6.94544L5.42421 13.2811C5.0848 13.6205 5.0848 14.0731 5.42421 14.4125C5.76362 14.7519 6.21617 14.7519 6.55558 14.4125Z" fill="#171D23"/>
</g>
<defs>
<clipPath id="clip0_1155_10477">
<rect width="19.2" height="19.2" fill="white" transform="translate(0.398438 0.400391)"/>
</clipPath>
</defs>
</svg>
