<svg width="28" height="28" viewBox="0 0 28 28" fill="none" xmlns="http://www.w3.org/2000/svg">
<g clip-path="url(#clip0_938_4947)">
<path d="M13.987 2.33398C7.54703 2.33398 2.33203 7.56065 2.33203 14.0007C2.33203 20.4407 7.54703 25.6673 13.987 25.6673C20.4387 25.6673 25.6654 20.4407 25.6654 14.0007C25.6654 7.56065 20.4387 2.33398 13.987 2.33398ZM22.072 9.33398H18.6304C18.257 7.87565 17.7204 6.47565 17.0204 5.18065C19.167 5.91565 20.952 7.40898 22.072 9.33398ZM13.9987 4.71398C14.967 6.11398 15.7254 7.66565 16.227 9.33398H11.7704C12.272 7.66565 13.0304 6.11398 13.9987 4.71398ZM4.9687 16.334C4.78203 15.5873 4.66536 14.8057 4.66536 14.0007C4.66536 13.1957 4.78203 12.414 4.9687 11.6673H8.91203C8.8187 12.4373 8.7487 13.2073 8.7487 14.0007C8.7487 14.794 8.8187 15.564 8.91203 16.334H4.9687ZM5.92536 18.6673H9.36703C9.74036 20.1257 10.277 21.5257 10.977 22.8207C8.83036 22.0856 7.04536 20.604 5.92536 18.6673ZM9.36703 9.33398H5.92536C7.04536 7.39732 8.83036 5.91565 10.977 5.18065C10.277 6.47565 9.74036 7.87565 9.36703 9.33398ZM13.9987 23.2873C13.0304 21.8873 12.272 20.3356 11.7704 18.6673H16.227C15.7254 20.3356 14.967 21.8873 13.9987 23.2873ZM16.7287 16.334H11.2687C11.1637 15.564 11.082 14.794 11.082 14.0007C11.082 13.2073 11.1637 12.4257 11.2687 11.6673H16.7287C16.8337 12.4257 16.9154 13.2073 16.9154 14.0007C16.9154 14.794 16.8337 15.564 16.7287 16.334ZM17.0204 22.8207C17.7204 21.5257 18.257 20.1257 18.6304 18.6673H22.072C20.952 20.5923 19.167 22.0856 17.0204 22.8207ZM19.0854 16.334C19.1787 15.564 19.2487 14.794 19.2487 14.0007C19.2487 13.2073 19.1787 12.4373 19.0854 11.6673H23.0287C23.2154 12.414 23.332 13.1957 23.332 14.0007C23.332 14.8057 23.2154 15.5873 23.0287 16.334H19.0854Z" fill="white"/>
</g>
<defs>
<clipPath id="clip0_938_4947">
<rect width="28" height="28" fill="white"/>
</clipPath>
</defs>
</svg>
